HIERARCHY
ROOT Hips
{
	OFFSET 0.00000 0.00000 0.00000
	CHANNELS 6 Xposition Yposition Zposition Zrotation Yrotation Xrotation 
	JOINT LHipJoint
	{
		OFFSET 0 0 0
		CHANNELS 3 Zrotation Yrotation Xrotation
		JOINT LeftHip
		{
			OFFSET 1.42489 -1.84941 0.69647
			CHANNELS 3 Zrotation Yrotation Xrotation
			JOINT LeftKnee
			{
				OFFSET 2.44443 -6.71602 0.00000
				CHANNELS 3 Zrotation Yrotation Xrotation
				JOINT LeftAnkle
				{
					OFFSET 2.62838 -7.22137 0.00000
					CHANNELS 3 Zrotation Yrotation Xrotation
					JOINT LeftToe
					{
						OFFSET 0.24036 -0.66037 2.29953
						CHANNELS 3 Zrotation Yrotation Xrotation
						End Site
						{
							OFFSET 0.00000 -0.00000 1.19837
						}
					}
				}
			}
		}
	}
	JOINT RHipJoint
	{
		OFFSET 0 0 0
		CHANNELS 3 Zrotation Yrotation Xrotation
		JOINT RightHip
		{
			OFFSET -1.37055 -1.84941 0.69647
			CHANNELS 3 Zrotation Yrotation Xrotation
			JOINT RightKnee
			{
				OFFSET -2.54834 -7.00152 0.00000
				CHANNELS 3 Zrotation Yrotation Xrotation
				JOINT RightAnkle
				{
					OFFSET -2.65692 -7.29983 0.00000
					CHANNELS 3 Zrotation Yrotation Xrotation
					JOINT RightToe
					{
						OFFSET -0.18839 -0.51760 2.29390
						CHANNELS 3 Zrotation Yrotation Xrotation
						End Site
						{
							OFFSET -0.00000 -0.00000 1.18261
						}
					}
				}
			}
		}
	}
	JOINT lowerback
	{
		OFFSET 0 0 0
		CHANNELS 3 Zrotation Yrotation Xrotation
		JOINT Chest
		{
			OFFSET 0.05220 2.15489 0.05011
			CHANNELS 3 Zrotation Yrotation Xrotation
			JOINT Chest2
			{
				OFFSET -0.07653 2.14219 -0.05668
				CHANNELS 3 Zrotation Yrotation Xrotation
				JOINT lowerneck
				{
					OFFSET 0 0 0
					CHANNELS 3 Zrotation Yrotation Xrotation
					JOINT Neck
					{
						OFFSET 0.01370 1.58638 0.01447
						CHANNELS 3 Zrotation Yrotation Xrotation
						JOINT Head
						{
							OFFSET 0.23548 1.54190 -0.21747
							CHANNELS 3 Zrotation Yrotation Xrotation
							End Site
							{
								OFFSET 0.07132 1.59823 -0.08163
							}
						}
					}
				}
				JOINT LeftCollar
				{
					OFFSET 0 0 0
					CHANNELS 3 Zrotation Yrotation Xrotation
					JOINT LeftShoulder
					{
						OFFSET 3.47056 1.45357 -0.58896
CHANNELS 3 Zrotation Xrotation Yrotation
						JOINT LeftElbow
						{
OFFSET 0 -5.190690 0.000000
CHANNELS 3 Zrotation Xrotation Yrotation
							JOINT LeftWrist
							{
OFFSET 0 -3.300160 0.000000
CHANNELS 3 Zrotation Xrotation Yrotation
								JOINT lhand
								{
									OFFSET 0 0 0
CHANNELS 3 Zrotation Xrotation Yrotation
									JOINT LFingers
									{
OFFSET 0 -0.707700 0.000000
CHANNELS 3 Zrotation Xrotation Yrotation
										End Site
										{
OFFSET 0 -0.570560 0.000000
										}
									}
								}
								JOINT LThumb
								{
OFFSET 0 0.000000 0.000000
CHANNELS 3 Zrotation Xrotation Yrotation
									End Site
									{
OFFSET 0 -0.579280 0.579280
									}
								}
							}
						}
					}
				}
				JOINT RightCollar
				{
					OFFSET 0 0 0
					CHANNELS 3 Zrotation Yrotation Xrotation
					JOINT RightShoulder
					{
						OFFSET -2.89018 2.03305 -0.26731
CHANNELS 3 Zrotation Xrotation Yrotation
						JOINT RightElbow
						{
OFFSET 0 -5.239240 0.000000
CHANNELS 3 Zrotation Xrotation Yrotation
							JOINT RightWrist
							{
OFFSET 0 -3.329530 0.000000
CHANNELS 3 Zrotation Xrotation Yrotation
								JOINT rhand
								{
									OFFSET 0 0 0
CHANNELS 3 Zrotation Xrotation Yrotation
									JOINT RFingers
									{
OFFSET 0 -0.607410 0.000000
CHANNELS 3 Zrotation Xrotation Yrotation
										End Site
										{
OFFSET 0 -0.489710 0.000000
										}
									}
								}
								JOINT RThumb
								{
OFFSET 0 0.000000 0.000000
CHANNELS 3 Zrotation Xrotation Yrotation
									End Site
									{
OFFSET 0 -0.497190 0.497190
									}
								}
							}
						}
					}
				}
			}
		}
	}
}
MOTION
Frames: 9
Frame Time: 0.008333333333333333
9.683792 16.078852 -1.360994 -4.266047 -35.935759 13.800314 0.000000 0.000000 0.000000 -6.478985 -1.770818 -56.881458 29.102567 17.884442 117.552023 0.753537 -10.450333 -16.075535 1.442855 -7.593828 -21.487076 0.000000 0.000000 0.000000 26.704199 11.005733 -48.652328 -9.310860 -17.003594 57.159009 -1.705769 -2.385061 -25.631249 -0.014395 0.773436 -2.125648 9.155658 -2.639762 25.810286 -0.588176 -2.380123 17.581465 -5.352119 -0.627600 5.318273 1.676220 -0.970997 3.833079 0.836709 -1.142053 -9.850771 0.035744 -0.685444 -3.889083 0.000000 0.000000 0.000000 20.624066 -46.157841 -48.902877 78.296773 -59.476013 49.882617 40.673633 -50.894924 -5.689745 0.000000 0.000000 0.000000 -7.125000 0.000000 0.000000 11.861886 37.225198 2.308819 0.000000 0.000000 0.000000 -14.663097 -4.476682 43.754836 -52.244455 -53.861521 -27.976878 -28.857019 8.596213 7.653658 0.000000 0.000000 0.000000 7.125000 0.000000 0.000000 -1.759669 38.697278 -0.273328
9.654788 15.951963 -1.339428 -4.602499 -36.285915 13.378302 0.000000 0.000000 0.000000 -5.176775 -1.932679 -61.643782 29.777955 17.532743 119.772036 0.734170 -10.821244 -15.989236 1.403855 -7.494621 -21.189381 0.000000 0.000000 0.000000 27.150983 10.872378 -48.776026 -9.852802 -17.326114 58.994962 -1.880604 -2.127878 -26.753041 -0.035027 1.206769 -3.317852 9.204609 -2.482208 27.287572 -0.569121 -2.090826 17.942444 -5.400682 -0.494449 5.134876 1.648799 -1.106302 4.043945 1.058407 -1.299222 -10.611301 0.127855 -0.783120 -4.201638 0.000000 0.000000 0.000000 21.969306 -47.883972 -47.426053 79.978843 -59.617020 51.332575 40.688429 -50.777236 -5.849866 0.000000 0.000000 0.000000 -7.125000 0.000000 0.000000 11.895828 37.431908 2.254352 0.000000 0.000000 0.000000 -15.034532 -5.338560 43.182371 -52.455769 -53.939218 -28.147579 -28.802550 8.509256 7.590867 0.000000 0.000000 0.000000 7.125000 0.000000 0.000000 -1.714774 38.621797 -0.269456
9.626159 15.825781 -1.309834 -4.996360 -36.647263 12.984544 0.000000 0.000000 0.000000 -4.025267 -2.385385 -66.116118 30.116668 17.343682 120.902332 0.736212 -10.762537 -15.992841 1.339687 -7.328516 -20.692354 0.000000 0.000000 0.000000 27.630045 10.748505 -48.839887 -10.391276 -17.623821 60.787963 -2.046380 -1.955417 -27.799981 -0.062130 1.607957 -4.423504 9.327846 -2.415028 28.912869 -0.726121 -1.847081 18.376217 -5.335945 -0.397903 4.670124 1.580347 -1.193492 4.260527 1.192271 -1.402538 -11.313245 0.197195 -0.848035 -4.498318 0.000000 0.000000 0.000000 23.427784 -49.478116 -45.697208 81.424866 -59.720165 52.580740 40.726966 -50.604086 -5.946628 0.000000 0.000000 0.000000 -7.125000 0.000000 0.000000 11.941801 37.559088 2.225461 0.000000 0.000000 0.000000 -15.285650 -6.098421 42.555217 -52.782081 -54.057702 -28.411558 -28.851638 8.496849 7.598410 0.000000 0.000000 0.000000 7.125000 0.000000 0.000000 -1.757049 38.634146 -0.275634
9.596430 15.702813 -1.272516 -5.377309 -37.028489 12.562819 0.000000 0.000000 0.000000 -3.068485 -3.178452 -70.122840 30.125391 17.338648 120.931745 0.759500 -10.316477 -16.099819 1.268577 -7.138830 -20.127340 0.000000 0.000000 0.000000 28.082650 10.622600 -48.829225 -10.923043 -17.896881 62.531062 -2.198571 -1.854515 -28.748541 -0.090766 1.942457 -5.346598 9.391896 -2.354596 30.277410 -0.736228 -1.684710 18.700048 -5.379172 -0.327232 4.524658 1.470948 -1.252397 4.501087 1.263915 -1.477497 -11.972939 0.252793 -0.893528 -4.788259 0.000000 0.000000 0.000000 24.982022 -50.942576 -43.794789 82.595347 -59.791656 53.591881 40.758415 -50.413353 -6.046815 0.000000 0.000000 0.000000 -7.125000 0.000000 0.000000 11.982112 37.690270 2.194011 0.000000 0.000000 0.000000 -15.431817 -6.734768 41.897672 -53.219414 -54.214126 -28.766011 -28.922116 8.518645 7.605638 0.000000 0.000000 0.000000 7.125000 0.000000 0.000000 -1.817826 38.647733 -0.284536
9.563282 15.585498 -1.229386 -5.682705 -37.443153 12.068951 0.000000 0.000000 0.000000 -2.297072 -4.283007 -73.515529 29.804442 17.517958 119.860489 0.794292 -9.647152 -16.279426 1.224952 -7.019669 -19.773745 0.000000 0.000000 0.000000 28.459878 10.506912 -48.717482 -11.443512 -18.145050 64.213397 -2.341897 -1.799105 -29.628107 -0.117922 2.213526 -6.096101 9.352116 -2.294581 31.602541 -0.760499 -1.553078 19.012945 -5.380095 -0.280084 4.394176 1.346208 -1.297050 4.698476 1.337038 -1.532922 -12.957943 0.276153 -0.933025 -4.655337 0.000000 0.000000 0.000000 26.657491 -52.294404 -41.764742 83.494607 -59.839399 54.369234 40.769856 -50.335156 -6.155882 0.000000 0.000000 0.000000 -7.125000 0.000000 0.000000 12.006482 37.831268 2.156333 0.000000 0.000000 0.000000 -15.482633 -7.245284 41.242696 -53.749794 -54.400161 -29.196762 -29.000023 8.542771 7.594304 0.000000 0.000000 0.000000 7.125000 0.000000 0.000000 -1.885668 38.640873 -0.295452
9.526092 15.474738 -1.181899 -5.902944 -37.869479 11.530180 0.000000 0.000000 0.000000 -1.661527 -5.617734 -76.251100 29.155145 17.857188 117.724662 0.833794 -8.867590 -16.511559 1.220395 -7.007003 -19.736018 0.000000 0.000000 0.000000 28.752561 10.414686 -48.526461 -11.946852 -18.367736 65.819925 -2.481647 -1.762023 -30.467648 -0.143089 2.437579 -6.716546 9.214691 -2.223622 32.869823 -0.800053 -1.440147 19.305805 -5.346197 -0.249584 4.274437 1.240142 -1.328758 4.908637 1.406494 -1.572738 -13.573814 0.322743 -0.960577 -4.878628 0.000000 0.000000 0.000000 28.431030 -53.550289 -39.675156 84.137741 -59.869683 54.925425 40.757402 -50.384253 -6.277741 0.000000 0.000000 0.000000 -7.125000 0.000000 0.000000 12.011875 37.986545 2.110696 0.000000 0.000000 0.000000 -15.431914 -7.622717 40.601941 -54.355214 -54.607682 -29.689691 -29.087425 8.569784 7.583791 0.000000 0.000000 0.000000 7.125000 0.000000 0.000000 -1.961792 38.635612 -0.307652
9.485660 15.370447 -1.131021 -6.084931 -38.256987 11.042719 0.000000 0.000000 0.000000 -1.095911 -7.057434 -78.398797 28.182928 18.310100 114.594640 0.876238 -7.981665 -16.794108 1.235644 -7.049168 -19.861064 0.000000 0.000000 0.000000 28.999634 10.353024 -48.334616 -12.424373 -18.564043 67.327552 -2.613939 -1.764558 -31.255124 -0.166734 2.630310 -7.251194 9.046062 -2.164860 34.023852 -0.852384 -1.361344 19.565494 -5.306059 -0.237367 4.166796 1.164465 -1.331791 5.087592 1.511506 -1.566575 -14.165717 0.372895 -0.968951 -5.090060 0.000000 0.000000 0.000000 30.286184 -54.717535 -37.544976 84.516478 -59.886041 55.252944 40.738537 -50.481964 -6.376502 0.000000 0.000000 0.000000 -7.125000 0.000000 0.000000 12.008679 38.111772 2.072511 0.000000 0.000000 0.000000 -15.268525 -7.871505 40.014361 -55.012318 -54.827179 -30.226108 -29.187825 8.587603 7.566215 0.000000 0.000000 0.000000 7.125000 0.000000 0.000000 -2.049347 38.623248 -0.322075
9.442140 15.273746 -1.077178 -6.292075 -38.586997 10.690345 0.000000 0.000000 0.000000 -0.570251 -8.448103 -80.002506 26.885986 18.819527 110.523953 0.920594 -6.970283 -17.132628 1.239993 -7.061064 -19.896319 0.000000 0.000000 0.000000 29.260018 10.334349 -48.178589 -12.861518 -18.731365 68.694681 -2.731561 -1.840151 -31.966143 -0.186014 2.777472 -7.659871 8.880459 -2.136558 35.020590 -0.902022 -1.331140 19.779382 -5.256789 -0.248558 4.067688 1.055398 -1.288771 5.285991 1.675164 -1.491107 -14.751777 0.442947 -0.945443 -5.303275 0.000000 0.000000 0.000000 32.175364 -55.760414 -35.367504 84.607683 -59.889847 55.331873 40.669611 -50.430280 -6.513383 0.000000 0.000000 0.000000 -7.125000 0.000000 0.000000 11.966801 38.281326 2.014332 0.000000 0.000000 0.000000 -15.035786 -7.989983 39.562047 -55.695689 -55.049233 -30.785427 -29.275406 8.584731 7.539675 0.000000 0.000000 0.000000 7.125000 0.000000 0.000000 -2.126004 38.599775 -0.335323
9.394971 15.188517 -1.020622 -6.539737 -38.875074 10.477968 0.000000 0.000000 0.000000 -0.133956 -9.675994 -81.009986 25.250770 19.320726 105.523454 0.968650 -5.850784 -17.564891 1.224865 -7.019322 -19.772651 0.000000 0.000000 0.000000 29.556634 10.353011 -48.024697 -13.241831 -18.867536 69.874801 -2.830312 -1.982987 -32.581293 -0.197908 2.864666 -7.902167 8.731877 -2.123370 35.852953 -0.951851 -1.326437 19.952066 -5.214407 -0.269758 3.983208 0.912619 -1.219869 5.539050 1.903084 -1.371691 -15.331237 0.536491 -0.903171 -5.524369 0.000000 0.000000 0.000000 34.048513 -56.689196 -33.225012 84.407746 -59.881470 55.158879 40.532117 -50.186097 -6.702639 0.000000 0.000000 0.000000 -7.125000 0.000000 0.000000 11.871619 38.511486 1.929512 0.000000 0.000000 0.000000 -14.739006 -7.971645 39.248731 -56.360042 -55.259156 -31.330713 -29.320946 8.566424 7.508984 0.000000 0.000000 0.000000 7.125000 0.000000 0.000000 -2.166351 38.568252 -0.343390
